<svg version="1.1" viewBox="0.0 0.0 960.0 420.0" fill="none" stroke="none" stroke-linecap="square" stroke-miterlimit="10" xmlns:xlink="http://www.w3.org/1999/xlink" xmlns="http://www.w3.org/2000/svg"><clipPath id="p.0"><path d="m0 0l960.0 0l0 420.0l-960.0 0l0 -420.0z" clip-rule="nonzero"/></clipPath><g clip-path="url(#p.0)"><path fill="#000000" fill-opacity="0.0" d="m0 0l960.0 0l0 420.0l-960.0 0z" fill-rule="evenodd"/><path fill="#000000" fill-opacity="0.0" d="m0 -28.145084l960.0 0l0 321.92126l-960.0 0z" fill-rule="evenodd"/><path fill="#1155cc" d="m72.03125 272.89865q0 -7.5 4.453125 -12.5q4.453125 -5.0 13.359375 -5.0q8.90625 0 13.515625 5.0q4.609375 5.0 4.609375 12.5q0 7.1875 -4.609375 12.03125q-4.609375 4.84375 -13.515625 4.84375q-8.90625 0 -13.359375 -4.84375q-4.453125 -4.84375 -4.453125 -12.03125z" fill-rule="nonzero"/><path fill="#212721" d="m257.5 226.0549q0 29.0625 -13.359375 46.703125q-13.359375 17.640625 -35.859375 17.640625q-24.015625 0 -37.140625 -17.0l-1.0625 14.65625l-19.921875 0l0 -180.0l21.6875 0l0 67.14063q13.125 -16.28125 36.203125 -16.28125q23.09375 0 36.265625 17.46875q13.1875 17.453125 13.1875 47.796875l0 1.875zm-21.671875 -2.453125q0 -22.15625 -8.5625 -34.21875q-8.546875 -12.078125 -24.609375 -12.078125q-21.4375 0 -30.8125 19.921875l0 54.84375q9.953125 19.921875 31.046875 19.921875q15.59375 0 24.265625 -12.0625q8.671875 -12.078125 8.671875 -36.328125zm101.60156 66.796875q-25.78125 0 -41.953125 -16.9375q-16.171875 -16.9375 -16.171875 -45.296875l0 -3.984375q0 -18.859375 7.203125 -33.6875q7.203125 -14.828125 20.15625 -23.203125q12.953125 -8.375 28.0625 -8.375q24.734375 0 38.4375 16.296875q13.71875 16.28125 13.71875 46.625l0 9.03125l-85.90625 0q0.46875 18.75 10.953125 30.296875q10.5 11.53125 26.671875 11.53125q11.484375 0 19.453125 -4.6875q7.96875 -4.6875 13.9375 -12.421875l13.25 10.3125q-15.9375 24.5 -47.8125 24.5zm-2.703125 -113.671875q-13.125 0 -22.03125 9.546875q-8.90625 9.546875 -11.015625 26.78125l63.515625 0l0 -1.640625q-0.9375 -16.53125 -8.90625 -25.609375q-7.96875 -9.078125 -21.5625 -9.078125zm117.1875 79.5625l29.53125 -95.03125l23.203125 0l-50.96875 146.375q-11.84375 31.640625 -37.625 31.640625l-4.09375 -0.359375l-8.09375 -1.515625l0 -17.578125l5.859375 0.46875q11.015625 0 17.171875 -4.453125q6.15625 -4.453125 10.140625 -16.296875l4.796875 -12.890625l-45.234375 -125.390625l23.671875 0l31.640625 95.03125zm64.578125 -32.8125q0 -18.625 7.3125 -33.5q7.328125 -14.890625 20.390625 -22.96875q13.078125 -8.09375 29.828125 -8.09375q25.90625 0 41.890625 17.9375q16.0 17.921875 16.0 47.6875l0 1.515625q0 18.515625 -7.09375 33.234375q-7.078125 14.703125 -20.265625 22.90625q-13.1875 8.203125 -30.296875 8.203125q-25.78125 0 -41.78125 -17.921875q-15.984375 -17.9375 -15.984375 -47.46875l0 -1.53125zm21.796875 2.578125q0 21.09375 9.78125 33.875q9.78125 12.765625 26.1875 12.765625q16.53125 0 26.25 -12.9375q9.734375 -12.953125 9.734375 -36.28125q0 -20.859375 -9.90625 -33.796875q-9.90625 -12.953125 -26.3125 -12.953125q-16.046875 0 -25.890625 12.78125q-9.84375 12.765625 -9.84375 36.546875zm141.32812 -64.796875l0.703125 15.9375q14.53125 -18.28125 37.96875 -18.28125q40.1875 0 40.546875 45.34375l0 83.796875l-21.6875 0l0 -83.90625q-0.109375 -13.71875 -6.265625 -20.28125q-6.15625 -6.5625 -19.15625 -6.5625q-10.546875 0 -18.515625 5.625q-7.96875 5.625 -12.421875 14.765625l0 90.359375l-21.6875 0l0 -126.796875l20.515625 0zm106.640625 62.34375q0 -29.1875 13.828125 -46.9375q13.828125 -17.75 36.203125 -17.75q22.265625 0 35.28125 15.234375l0 -66.09376l21.671875 0l0 180.0l-19.921875 0l-1.046875 -13.59375q-13.015625 15.9375 -36.21875 15.9375q-22.03125 0 -35.921875 -18.046875q-13.875 -18.046875 -13.875 -47.109375l0 -1.640625zm21.671875 2.453125q0 21.5625 8.90625 33.75q8.90625 12.1875 24.609375 12.1875q20.625 0 30.125 -18.515625l0 -58.234375q-9.734375 -17.9375 -29.890625 -17.9375q-15.9375 0 -24.84375 12.3125q-8.90625 12.296875 -8.90625 36.4375z" fill-rule="nonzero"/></g></svg>